<svg id="SvgjsSvg1011" width="288" height="288" xmlns="http://www.w3.org/2000/svg" version="1.1" xmlns:xlink="http://www.w3.org/1999/xlink" xmlns:svgjs="http://svgjs.com/svgjs"><defs id="SvgjsDefs1012"></defs><g id="SvgjsG1013"><svg xmlns="http://www.w3.org/2000/svg" viewBox="0 0 32 32" width="288" height="288"><path d="M26.707,21.293a1,1,0,0,0-1.414,0L23,23.586V13.5a8.5,8.5,0,0,0-17,0V26a1,1,0,0,0,2,0V13.5a6.5,6.5,0,0,1,13,0V23.586l-2.293-2.293a1,1,0,0,0-1.414,1.414l4,4a1,1,0,0,0,1.414,0l4-4A1,1,0,0,0,26.707,21.293Z" data-name="Layer 2" fill="#00a650" class="color000 svgShape"></path></svg></g></svg>