<svg id="SvgjsSvg1030" width="288" height="288" xmlns="http://www.w3.org/2000/svg" version="1.1" xmlns:xlink="http://www.w3.org/1999/xlink" xmlns:svgjs="http://svgjs.com/svgjs"><defs id="SvgjsDefs1031"></defs><g id="SvgjsG1032"><svg xmlns="http://www.w3.org/2000/svg" viewBox="0 0 24 24" width="288" height="288"><g fill="none" fill-rule="evenodd" stroke="#afafaf" class="colorStroke4A4A4A svgStroke"><path d="M20.422 3.193A7.379 7.379 0 0 1 16.59 4.26a7.382 7.382 0 0 1-4.607-1.606A7.381 7.381 0 0 1 7.375 4.26a7.379 7.379 0 0 1-3.833-1.067A13.278 13.278 0 0 0 2.5 8.367a13.327 13.327 0 0 0 9.482 12.76 13.327 13.327 0 0 0 9.482-12.76 13.26 13.26 0 0 0-1.042-5.174z" fill="#ffffff" class="color000 svgShape"></path><path stroke-linecap="round" stroke-linejoin="round" d="m8.317 11.633 3.284 2.844 5.037-5.488" fill="#ffffff" class="color000 svgShape"></path></g></svg></g></svg>