<svg xmlns="http://www.w3.org/2000/svg" width="16" height="16"><path style="line-height:normal;text-indent:0;text-align:start;text-decoration-line:none;text-decoration-style:solid;text-decoration-color:#000;text-transform:none;block-progression:tb;isolation:auto;mix-blend-mode:normal" d="m7.988.37-.361.405c-1.53 1.718-3.654 2.529-6.188 2.838L1 3.666v.443c0 2.58.546 5.083 1.676 7.135 1.13 2.052 2.864 3.653 5.181 4.344l.149.045.148-.051C12.632 14.135 15 9.421 15 4.109v-.398l-.389-.092C12.146 3.051 9.873 2.361 8.363.766L7.988.369zM8.012 1.7c1.619 1.512 3.745 2.24 5.947 2.766-.105 4.781-2.197 8.769-5.963 10.082-1.961-.635-3.442-1.97-4.443-3.787-.976-1.77-1.46-3.982-1.512-6.282 2.315-.351 4.382-1.18 5.97-2.779zm2.658 4.281L7.023 9.174l-1.67-1.668-.707.707 2.33 2.33 4.354-3.809-.66-.752z" color="#000" font-family="sans-serif" font-weight="400" overflow="visible"/></svg>