<svg id="SvgjsSvg1025" width="288" height="288" xmlns="http://www.w3.org/2000/svg" version="1.1" xmlns:xlink="http://www.w3.org/1999/xlink" xmlns:svgjs="http://svgjs.com/svgjs"><defs id="SvgjsDefs1026"></defs><g id="SvgjsG1027"><svg xmlns="http://www.w3.org/2000/svg" enable-background="new 0 0 24 24" viewBox="0 0 24 24" width="288" height="288"><path fill="#e8e8e8" d="M21.951 9.67a1 1 0 0 0-.807-.68l-5.699-.828-2.548-5.164A.978.978 0 0 0 12 2.486v16.28l5.097 2.679a1 1 0 0 0 1.451-1.054l-.973-5.676 4.123-4.02a1 1 0 0 0 .253-1.025z" class="colorb2b1ff svgShape"></path><path fill="#3483fa" d="M11.103 2.998 8.555 8.162l-5.699.828a1 1 0 0 0-.554 1.706l4.123 4.019-.973 5.676a1 1 0 0 0 1.45 1.054L12 18.765V2.503c-.356.001-.703.167-.897.495z" class="color6563ff svgShape"></path></svg></g></svg>